<?xml version="1.0" encoding="utf-8" standalone="no"?>
<!DOCTYPE svg PUBLIC "-//W3C//DTD SVG 1.1//EN"
  "http://www.w3.org/Graphics/SVG/1.1/DTD/svg11.dtd">
<svg xmlns:xlink="http://www.w3.org/1999/xlink" width="237.6pt" height="161.142128pt" viewBox="0 0 237.6 161.142128" xmlns="http://www.w3.org/2000/svg" version="1.1">
 <metadata>
  <rdf:RDF xmlns:dc="http://purl.org/dc/elements/1.1/" xmlns:cc="http://creativecommons.org/ns#" xmlns:rdf="http://www.w3.org/1999/02/22-rdf-syntax-ns#">
   <cc:Work>
    <dc:type rdf:resource="http://purl.org/dc/dcmitype/StillImage"/>
    <dc:date>2025-06-29T21:21:09.874829</dc:date>
    <dc:format>image/svg+xml</dc:format>
    <dc:creator>
     <cc:Agent>
      <dc:title>Matplotlib v3.9.2, https://matplotlib.org/</dc:title>
     </cc:Agent>
    </dc:creator>
   </cc:Work>
  </rdf:RDF>
 </metadata>
 <defs>
  <style type="text/css">*{stroke-linejoin: round; stroke-linecap: butt}</style>
 </defs>
 <g id="figure_1">
  <g id="patch_1">
   <path d="M 0 161.142128 
L 237.6 161.142128 
L 237.6 0 
L 0 0 
z
" style="fill: #ffffff"/>
  </g>
  <g id="axes_1">
   <g id="QuadContourSet_1">
    <path d="M 156.791489 83.420426 
L 157.266383 83.420426 
L 157.741277 83.420426 
L 158.21617 83.420426 
L 158.691064 83.420426 
L 159.165957 83.420426 
L 159.640851 83.420426 
L 160.115745 83.420426 
L 160.590638 83.420426 
L 161.065532 83.420426 
L 161.302979 83.182979 
L 161.540426 82.945532 
L 162.015319 82.945532 
L 162.252766 82.708085 
L 162.252766 82.233191 
L 162.252766 81.758298 
L 162.252766 81.283404 
L 162.015319 81.045957 
L 161.777872 80.808511 
L 161.777872 80.333617 
L 161.540426 80.09617 
L 161.302979 79.858723 
L 161.065532 79.621277 
L 160.828085 79.38383 
L 160.590638 79.146383 
L 160.115745 79.146383 
L 159.878298 78.908936 
L 159.640851 78.671489 
L 159.403404 78.434043 
L 159.165957 78.196596 
L 158.691064 78.196596 
L 158.453617 77.959149 
L 158.21617 77.721702 
L 157.978723 77.484255 
L 157.741277 77.246809 
L 157.266383 77.246809 
L 157.028936 77.009362 
L 156.791489 76.771915 
L 156.554043 76.534468 
L 156.316596 76.297021 
L 155.841702 76.297021 
L 155.604255 76.059574 
L 155.366809 75.822128 
L 154.891915 75.822128 
L 154.654468 75.584681 
L 154.417021 75.347234 
L 153.942128 75.347234 
L 153.704681 75.109787 
L 153.467234 74.87234 
L 152.99234 74.87234 
L 152.754894 74.634894 
L 152.517447 74.397447 
L 152.28 74.16 
L 152.042553 73.922553 
L 151.56766 73.922553 
L 151.330213 73.685106 
L 151.092766 73.44766 
L 150.617872 73.44766 
L 150.380426 73.210213 
L 150.142979 72.972766 
L 149.905532 72.735319 
L 149.668085 72.497872 
L 149.193191 72.497872 
L 148.955745 72.260426 
L 148.718298 72.022979 
L 148.243404 72.022979 
L 148.005957 71.785532 
L 147.768511 71.548085 
L 147.293617 71.548085 
L 147.05617 71.310638 
L 146.818723 71.073191 
L 146.34383 71.073191 
L 146.106383 70.835745 
L 145.868936 70.598298 
L 145.394043 70.598298 
L 144.919149 70.598298 
L 144.444255 70.598298 
L 144.206809 70.360851 
L 143.969362 70.123404 
L 143.494468 70.123404 
L 143.019574 70.123404 
L 142.544681 70.123404 
L 142.069787 70.123404 
L 141.83234 69.885957 
L 141.594894 69.648511 
L 141.12 69.648511 
L 140.645106 69.648511 
L 140.40766 69.411064 
L 140.170213 69.173617 
L 139.695319 69.173617 
L 139.220426 69.173617 
L 138.982979 68.93617 
L 138.745532 68.698723 
L 138.270638 68.698723 
L 137.795745 68.698723 
L 137.320851 68.698723 
L 137.083404 68.461277 
L 136.845957 68.22383 
L 136.371064 68.22383 
L 135.89617 68.22383 
L 135.658723 67.986383 
L 135.421277 67.748936 
L 134.946383 67.748936 
L 134.708936 67.511489 
L 134.471489 67.274043 
L 134.234043 67.036596 
L 133.996596 66.799149 
L 133.521702 66.799149 
L 133.284255 66.561702 
L 133.046809 66.324255 
L 132.809362 66.086809 
L 132.571915 65.849362 
L 132.334468 65.611915 
L 132.097021 65.374468 
L 131.859574 65.137021 
L 131.622128 64.899574 
L 131.384681 64.662128 
L 131.147234 64.424681 
L 130.909787 64.187234 
L 130.67234 63.949787 
L 130.434894 63.71234 
L 130.197447 63.474894 
L 129.96 63.237447 
L 129.722553 63 
L 129.485106 62.762553 
L 129.485106 62.28766 
L 129.24766 62.050213 
L 129.010213 61.812766 
L 128.772766 61.575319 
L 128.535319 61.337872 
L 128.297872 61.100426 
L 128.060426 60.862979 
L 127.822979 60.625532 
L 127.585532 60.388085 
L 127.348085 60.150638 
L 127.110638 59.913191 
L 127.110638 59.438298 
L 126.873191 59.200851 
L 126.635745 58.963404 
L 126.398298 58.725957 
L 126.160851 58.488511 
L 125.923404 58.251064 
L 125.685957 58.013617 
L 125.448511 57.77617 
L 125.211064 57.538723 
L 124.973617 57.301277 
L 124.73617 57.06383 
L 124.73617 56.588936 
L 124.498723 56.351489 
L 124.261277 56.114043 
L 124.02383 55.876596 
L 123.786383 55.639149 
L 123.548936 55.401702 
L 123.311489 55.164255 
L 123.311489 54.689362 
L 123.074043 54.451915 
L 122.836596 54.214468 
L 122.599149 53.977021 
L 122.361702 53.739574 
L 122.124255 53.502128 
L 121.886809 53.264681 
L 121.649362 53.027234 
L 121.174468 53.027234 
L 120.937021 52.789787 
L 120.699574 52.55234 
L 120.462128 52.314894 
L 120.224681 52.077447 
L 119.749787 52.077447 
L 119.274894 52.077447 
L 119.037447 51.84 
L 118.8 51.602553 
L 118.325106 51.602553 
L 118.08766 51.365106 
L 117.850213 51.12766 
L 117.375319 51.12766 
L 116.900426 51.12766 
L 116.425532 51.12766 
L 116.188085 50.890213 
L 115.950638 50.652766 
L 115.475745 50.652766 
L 115.238298 50.415319 
L 115.000851 50.177872 
L 114.525957 50.177872 
L 114.051064 50.177872 
L 113.813617 49.940426 
L 113.57617 49.702979 
L 113.101277 49.702979 
L 112.86383 49.465532 
L 112.626383 49.228085 
L 112.151489 49.228085 
L 111.914043 48.990638 
L 111.676596 48.753191 
L 111.201702 48.753191 
L 110.726809 48.753191 
L 110.489362 48.515745 
L 110.251915 48.278298 
L 109.777021 48.278298 
L 109.539574 48.040851 
L 109.302128 47.803404 
L 108.827234 47.803404 
L 108.35234 47.803404 
L 107.877447 47.803404 
L 107.402553 47.803404 
L 106.92766 47.803404 
L 106.452766 47.803404 
L 105.977872 47.803404 
L 105.502979 47.803404 
L 105.028085 47.803404 
L 104.790638 48.040851 
L 104.553191 48.278298 
L 104.078298 48.278298 
L 103.840851 48.515745 
L 103.603404 48.753191 
L 103.128511 48.753191 
L 102.891064 48.990638 
L 102.653617 49.228085 
L 102.178723 49.228085 
L 101.941277 49.465532 
L 101.70383 49.702979 
L 101.228936 49.702979 
L 100.991489 49.940426 
L 100.754043 50.177872 
L 100.516596 50.415319 
L 100.279149 50.652766 
L 99.804255 50.652766 
L 99.566809 50.890213 
L 99.329362 51.12766 
L 99.091915 51.365106 
L 98.854468 51.602553 
L 98.379574 51.602553 
L 98.142128 51.84 
L 97.904681 52.077447 
L 97.667234 52.314894 
L 97.429787 52.55234 
L 96.954894 52.55234 
L 96.717447 52.789787 
L 96.48 53.027234 
L 96.242553 53.264681 
L 96.005106 53.502128 
L 95.530213 53.502128 
L 95.292766 53.739574 
L 95.055319 53.977021 
L 94.817872 54.214468 
L 94.580426 54.451915 
L 94.105532 54.451915 
L 93.868085 54.689362 
L 93.630638 54.926809 
L 93.155745 54.926809 
L 92.918298 55.164255 
L 92.680851 55.401702 
L 92.205957 55.401702 
L 91.968511 55.639149 
L 91.731064 55.876596 
L 91.25617 55.876596 
L 91.018723 56.114043 
L 90.781277 56.351489 
L 90.54383 56.588936 
L 90.306383 56.826383 
L 89.831489 56.826383 
L 89.594043 57.06383 
L 89.356596 57.301277 
L 88.881702 57.301277 
L 88.644255 57.538723 
L 88.406809 57.77617 
L 87.931915 57.77617 
L 87.694468 58.013617 
L 87.457021 58.251064 
L 87.219574 58.488511 
L 86.982128 58.725957 
L 86.744681 58.963404 
L 86.507234 59.200851 
L 86.03234 59.200851 
L 85.794894 59.438298 
L 85.557447 59.675745 
L 85.32 59.913191 
L 85.32 60.388085 
L 85.082553 60.625532 
L 84.845106 60.862979 
L 84.60766 61.100426 
L 84.370213 61.337872 
L 84.132766 61.575319 
L 83.895319 61.812766 
L 83.895319 62.28766 
L 83.657872 62.525106 
L 83.420426 62.762553 
L 83.420426 63.237447 
L 83.420426 63.71234 
L 83.420426 64.187234 
L 83.420426 64.662128 
L 83.657872 64.899574 
L 83.895319 65.137021 
L 83.895319 65.611915 
L 84.132766 65.849362 
L 84.60766 65.849362 
L 84.845106 66.086809 
L 85.082553 66.324255 
L 85.32 66.561702 
L 85.557447 66.799149 
L 86.03234 66.799149 
L 86.269787 67.036596 
L 86.507234 67.274043 
L 86.744681 67.511489 
L 86.982128 67.748936 
L 87.457021 67.748936 
L 87.694468 67.986383 
L 87.931915 68.22383 
L 88.406809 68.22383 
L 88.644255 68.461277 
L 88.881702 68.698723 
L 89.356596 68.698723 
L 89.594043 68.93617 
L 89.831489 69.173617 
L 90.306383 69.173617 
L 90.54383 69.411064 
L 90.781277 69.648511 
L 91.25617 69.648511 
L 91.731064 69.648511 
L 92.205957 69.648511 
L 92.443404 69.885957 
L 92.680851 70.123404 
L 93.155745 70.123404 
L 93.630638 70.123404 
L 94.105532 70.123404 
L 94.580426 70.123404 
L 95.055319 70.123404 
L 95.530213 70.123404 
L 96.005106 70.123404 
L 96.48 70.123404 
L 96.954894 70.123404 
L 97.429787 70.123404 
L 97.904681 70.123404 
L 98.379574 70.123404 
L 98.854468 70.123404 
L 99.329362 70.123404 
L 99.566809 69.885957 
L 99.804255 69.648511 
L 100.279149 69.648511 
L 100.754043 69.648511 
L 100.991489 69.411064 
L 101.228936 69.173617 
L 101.70383 69.173617 
L 102.178723 69.173617 
L 102.41617 68.93617 
L 102.653617 68.698723 
L 102.891064 68.461277 
L 103.128511 68.22383 
L 103.365957 67.986383 
L 103.365957 67.511489 
L 103.603404 67.274043 
L 103.840851 67.036596 
L 103.840851 66.561702 
L 103.840851 66.086809 
L 103.840851 65.611915 
L 103.840851 65.137021 
L 103.840851 64.662128 
L 103.840851 64.187234 
L 103.840851 63.71234 
L 103.840851 63.237447 
L 103.840851 62.762553 
L 103.840851 62.28766 
L 103.840851 61.812766 
L 103.840851 61.337872 
L 103.603404 61.100426 
L 103.365957 60.862979 
L 103.365957 60.388085 
L 103.365957 59.913191 
L 103.603404 59.675745 
L 103.840851 59.438298 
L 103.840851 58.963404 
L 103.840851 58.488511 
L 104.078298 58.251064 
L 104.315745 58.013617 
L 104.315745 57.538723 
L 104.553191 57.301277 
L 104.790638 57.06383 
L 105.028085 56.826383 
L 105.265532 56.588936 
L 105.502979 56.351489 
L 105.740426 56.114043 
L 105.977872 55.876596 
L 106.215319 55.639149 
L 106.452766 55.401702 
L 106.92766 55.401702 
L 107.165106 55.164255 
L 107.402553 54.926809 
L 107.877447 54.926809 
L 108.114894 55.164255 
L 108.35234 55.401702 
L 108.827234 55.401702 
L 109.302128 55.401702 
L 109.539574 55.639149 
L 109.777021 55.876596 
L 110.251915 55.876596 
L 110.489362 56.114043 
L 110.726809 56.351489 
L 111.201702 56.351489 
L 111.439149 56.588936 
L 111.676596 56.826383 
L 112.151489 56.826383 
L 112.626383 56.826383 
L 112.86383 57.06383 
L 113.101277 57.301277 
L 113.57617 57.301277 
L 113.813617 57.538723 
L 114.051064 57.77617 
L 114.525957 57.77617 
L 114.763404 58.013617 
L 115.000851 58.251064 
L 115.475745 58.251064 
L 115.713191 58.488511 
L 115.950638 58.725957 
L 116.425532 58.725957 
L 116.662979 58.963404 
L 116.900426 59.200851 
L 117.137872 59.438298 
L 117.375319 59.675745 
L 117.850213 59.675745 
L 118.08766 59.913191 
L 118.325106 60.150638 
L 118.562553 60.388085 
L 118.8 60.625532 
L 119.037447 60.862979 
L 119.274894 61.100426 
L 119.749787 61.100426 
L 119.987234 61.337872 
L 120.224681 61.575319 
L 120.462128 61.812766 
L 120.699574 62.050213 
L 120.937021 62.28766 
L 121.174468 62.525106 
L 121.411915 62.762553 
L 121.649362 63 
L 121.886809 63.237447 
L 122.124255 63.474894 
L 122.361702 63.71234 
L 122.361702 64.187234 
L 122.599149 64.424681 
L 122.836596 64.662128 
L 123.074043 64.899574 
L 123.311489 65.137021 
L 123.548936 65.374468 
L 123.786383 65.611915 
L 124.02383 65.849362 
L 124.261277 66.086809 
L 124.261277 66.561702 
L 124.498723 66.799149 
L 124.73617 67.036596 
L 124.73617 67.511489 
L 124.973617 67.748936 
L 125.211064 67.986383 
L 125.448511 68.22383 
L 125.685957 68.461277 
L 125.685957 68.93617 
L 125.923404 69.173617 
L 126.160851 69.411064 
L 126.160851 69.885957 
L 126.398298 70.123404 
L 126.635745 70.360851 
L 126.635745 70.835745 
L 126.873191 71.073191 
L 127.110638 71.310638 
L 127.348085 71.548085 
L 127.585532 71.785532 
L 127.585532 72.260426 
L 127.822979 72.497872 
L 128.060426 72.735319 
L 128.297872 72.972766 
L 128.772766 72.972766 
L 129.010213 73.210213 
L 129.24766 73.44766 
L 129.485106 73.685106 
L 129.722553 73.922553 
L 130.197447 73.922553 
L 130.434894 74.16 
L 130.67234 74.397447 
L 131.147234 74.397447 
L 131.384681 74.634894 
L 131.622128 74.87234 
L 132.097021 74.87234 
L 132.571915 74.87234 
L 133.046809 74.87234 
L 133.521702 74.87234 
L 133.759149 75.109787 
L 133.996596 75.347234 
L 134.471489 75.347234 
L 134.946383 75.347234 
L 135.421277 75.347234 
L 135.658723 75.584681 
L 135.89617 75.822128 
L 136.371064 75.822128 
L 136.845957 75.822128 
L 137.320851 75.822128 
L 137.558298 76.059574 
L 137.795745 76.297021 
L 138.270638 76.297021 
L 138.745532 76.297021 
L 139.220426 76.297021 
L 139.457872 76.534468 
L 139.695319 76.771915 
L 140.170213 76.771915 
L 140.645106 76.771915 
L 141.12 76.771915 
L 141.357447 77.009362 
L 141.594894 77.246809 
L 142.069787 77.246809 
L 142.307234 77.484255 
L 142.544681 77.721702 
L 143.019574 77.721702 
L 143.257021 77.959149 
L 143.494468 78.196596 
L 143.969362 78.196596 
L 144.206809 78.434043 
L 144.444255 78.671489 
L 144.919149 78.671489 
L 145.156596 78.908936 
L 145.394043 79.146383 
L 145.631489 79.38383 
L 145.868936 79.621277 
L 146.34383 79.621277 
L 146.581277 79.858723 
L 146.818723 80.09617 
L 147.293617 80.09617 
L 147.531064 80.333617 
L 147.768511 80.571064 
L 148.243404 80.571064 
L 148.480851 80.808511 
L 148.718298 81.045957 
L 149.193191 81.045957 
L 149.668085 81.045957 
L 149.905532 81.283404 
L 150.142979 81.520851 
L 150.617872 81.520851 
L 151.092766 81.520851 
L 151.330213 81.758298 
L 151.56766 81.995745 
L 152.042553 81.995745 
L 152.517447 81.995745 
L 152.754894 82.233191 
L 152.99234 82.470638 
L 153.467234 82.470638 
L 153.942128 82.470638 
L 154.417021 82.470638 
L 154.654468 82.708085 
L 154.891915 82.945532 
L 155.366809 82.945532 
L 155.841702 82.945532 
L 156.316596 82.945532 
L 156.554043 83.182979 
z
" clip-path="url(#p405751a08f)" style="fill: #1f77b4"/>
   </g>
   <g id="matplotlib.axis_1"/>
   <g id="matplotlib.axis_2"/>
  </g>
 </g>
 <defs>
  <clipPath id="p405751a08f">
   <rect x="7.2" y="7.2" width="223.2" height="146.742128"/>
  </clipPath>
 </defs>
</svg>
